<svg width="71" height="19" fill="none" xmlns="http://www.w3.org/2000/svg"><path d="M15.117.545V18h-3.188L4.335 7.014h-.128V18H.517V.545h3.239l7.534 10.978h.153V.545h3.674ZM18.166 18V.545h11.76v3.043h-8.07v4.16h7.466v3.042h-7.466v4.167h8.105V18H18.166Zm18.624 0L31.796.545h4.03l2.89 12.128h.145L42.048.545H45.5L48.679 12.7h.153L51.722.545h4.03L50.759 18h-3.596L43.838 6.588h-.136L40.386 18H36.79ZM67.033 5.565c-.069-.687-.361-1.221-.878-1.602-.517-.38-1.219-.571-2.105-.571-.603 0-1.111.085-1.526.256-.415.164-.733.395-.954.69-.216.296-.324.63-.324 1.006-.012.312.054.585.196.818.148.233.35.435.605.605a4.6 4.6 0 0 0 .886.435c.336.119.693.221 1.074.307l1.568.375c.762.17 1.46.397 2.097.681a6.37 6.37 0 0 1 1.653 1.049c.466.414.827.903 1.083 1.465.261.563.395 1.208.4 1.935-.005 1.068-.278 1.995-.818 2.779-.534.778-1.307 1.383-2.318 1.815-1.006.426-2.219.64-3.64.64-1.408 0-2.636-.217-3.681-.649-1.04-.431-1.852-1.07-2.438-1.917-.58-.853-.883-1.906-.912-3.162h3.571c.04.585.208 1.074.503 1.466.301.386.702.679 1.202.878.506.193 1.077.29 1.713.29.625 0 1.168-.091 1.628-.273.466-.182.827-.435 1.082-.759.256-.324.384-.696.384-1.116 0-.392-.117-.722-.35-.989-.227-.267-.562-.494-1.005-.682a10.225 10.225 0 0 0-1.611-.511l-1.9-.477c-1.472-.358-2.634-.918-3.487-1.68-.852-.76-1.275-1.786-1.27-3.076-.005-1.057.276-1.98.844-2.77.574-.79 1.361-1.406 2.361-1.85 1-.443 2.137-.664 3.41-.664 1.295 0 2.425.221 3.391.665.972.443 1.728 1.06 2.267 1.849.54.79.819 1.705.836 2.744h-3.537Z" fill="#000"/></svg>